<?xml version="1.0" encoding="utf-8"?>
<!-- Generator: Adobe Illustrator 21.0.0, SVG Export Plug-In . SVG Version: 6.00 Build 0)  -->
<svg version="1.1" id="Layer_1" xmlns="http://www.w3.org/2000/svg" xmlns:xlink="http://www.w3.org/1999/xlink" x="0px" y="0px"
	 viewBox="0 0 888.5 600" style="enable-background:new 0 0 888.5 600;" xml:space="preserve">
<style type="text/css">
	.st0{fill:#F2EDE5;}
</style>
<g id="Page-1_1_">
	<g id="Artboard">
		<path id="Page-1" class="st0" d="M176.3,489.7l-76.9,20.6c-21.5,5.8-44.2-5.3-52.8-25.8c-28.9-69.4-22.8-91.9-22.6-92.7
			c0.2-0.7,1-1.2,1.7-1.1l138.4,13c1.7,0.1,3.3-0.5,4.5-1.7c1.1-1.2,1.7-2.9,1.3-4.6c-0.4-2.3-2.3-4.1-4.6-4.3L41.9,375.7
			c-13.3-1.8-23.8-12.1-25.8-25.4C11.7,323,5,278.6,4.9,278.1c-0.1-0.6,0.1-1.1,0.6-1.4s1.1-0.5,1.6-0.2l116.8,40.3
			c1.3,0.5,2.8,0.4,4.1-0.4c1.2-0.7,2.2-1.9,2.4-3.3c0.5-2.4-0.8-4.8-3.1-5.8l-103.6-39c-13.9-5.2-23.1-18.1-23.4-33
			c-0.7-33.7,1.3-82.5,1.3-83c0-0.5,0.2-1,0.7-1.2c0.4-0.2,0.8-0.4,1.3-0.2L83,174.1c1.4,0.5,3,0.2,4.3-0.6c1.3-0.7,2.3-2.1,2.5-3.5
			c0.6-2.8-1-5.6-3.6-6.4l-54.6-18.4c-7.6-2.5-13.8-8.2-17-15.6c-3.3-7.4-3.1-15.7,0.1-23.1C29.5,74.3,57.8,31.5,58,31l0,0
			c0-0.1,0-0.1,0.1-0.2c0.4-0.5,1-0.7,1.6-0.6c0.5,0.1,51.6,8.5,88.3,20.5c18.5,6.2,30.4,24,28.9,43.6c-2.1,25.5-5,59.2-7.5,74.7
			c-0.5,3.3,1.2,6.4,4.1,7.8c2.1,1,4.2,1,6.3,0c2.1-1,3.5-2.7,4-4.8c13.8-54.7,20.2-92,16.9-97.6c-0.4-0.6-0.2-1.6,0.4-2.1
			c0.6-0.5,1.4-0.5,2.1,0c0.5,0.4,44.6,35.7,69.3,58.2c11,9.9,15.3,25,11.5,39.2c-8.3,30.7-24.6,86-39.5,112.9
			c-1.2,2.2-0.6,4.8,1.3,6.4c1.2,1,2.8,1.3,4.2,1c1.4-0.4,2.8-1.3,3.4-2.8c9.8-20.3,42.1-89,47-117.7c0.1-0.6,0.6-1.1,1.1-1.3
			c0.6-0.1,1.2,0,1.7,0.5c0.2,0.4,31.5,34.5,51.7,57.4c8.3,9.4,10.7,22.6,6.4,34.4c-8.8,23.8-29.9,68.8-73.1,102.3
			c-3.1,2.4-4.1,6.8-2.2,10.4c1.2,2.2,3.3,3.6,5.7,4.1c2.4,0.5,4.8-0.2,6.8-1.8c24.5-20.6,81.5-73.4,81.6-119.4
			c0-0.7,0.5-1.3,1.1-1.6c0.6-0.1,1.3,0,1.8,0.6c3.9,5.1,93.8,123.7,56.4,190.6c-5.2,9.2-9.5,17.9-13.4,25.6
			c-12.9,25.5-21.9,43-42.9,49.9c-19,6.2-47.7,3.6-98.1-9.8l-0.1-0.1c-5,11.2-19.4,41.8-38.3,69.1c-6.3,9.2-13.8,14.4-22.2,17.1
			c-16.3,5.3-35.9,1.1-56.2-3.3c-9.8-2.1-19.8-4.2-29.6-5.3c-40.8-4.6-68-52.3-69.1-54.3c-0.2-0.5-0.2-1-0.1-1.4
			c0.2-0.5,0.5-0.8,1.1-1l109.3-29.7c1.8-0.5,3.3-1.7,4.1-3.4c0.8-1.7,1-3.6,0.2-5.3C183,490.5,179.6,488.7,176.3,489.7L176.3,489.7
			z M115.1,154.8c-3.9-3.1-10.7-7.1-15.7-9.5c-4.6-2.4-9.4-4.2-14.5-5.7c-0.6-0.1-1.1-0.4-1.7-0.5c0.5,0.1,1.1,0.4,1.6,0.5
			c5,1.7,9.7,3.9,14,6.4c4.3,2.5,8.5,5.6,12.2,9.1c1,0.8,2.2,1.9,3.5,3.1c1.2,1,2.4,2.2,3.6,3.3L115.1,154.8z M216.8,365.7
			c0,0.1,0.1,0.1,0.1,0.2l51,107.6c-7.6-18.2-17.8-42.6-29.5-70.4c-0.8-0.2-1.4-1-1.2-1.8c0-0.2,0.1-0.5,0.1-0.7
			c-1-2.3-1.9-4.6-2.9-6.9h-0.1c-0.8-0.2-1.3-1.1-1.1-1.9c0.1-0.2,0.1-0.5,0.1-0.7c-14.2-33.9-30.2-72-46.1-109.8l0,0
			c-0.8-0.1-1.4-1-1.3-1.8c0-0.4,0.1-0.7,0.2-1.1c-1.1-2.5-2.1-5-3.1-7.5c-0.2,0-0.4,0.1-0.6,0.1c-0.8-0.1-1.4-1-1.3-1.8
			c0.1-0.8,0.2-1.4,0.4-1.9c-41.7-98.5-81.1-191-85.1-196.7c-6.4-9.1-24.6-23.9-33.8-31.3L216.8,365.7z M165.8,261.9
			c-9.2-7.1-15.5-9.9-25.7-14.5l-1.3-0.6c-5.1-2.3-10.4-4.3-17-6.6c-5.2-1.8-10.9-3.6-17.4-5.6c-2.4-0.7-5-1.3-7.4-2.1l-2.4-0.6
			c-2.7-0.6-5.2-1.3-7.8-1.9c-5.9-1.3-11.8-2.7-17.8-3.7c-5.9-1.1-12-2.2-17.9-3c-7-1-12.7-1.7-18-2.2c-0.2,0-0.5,0.1-0.5,0.4
			c0,0.2,0.1,0.5,0.5,0.5c5.3,0.6,11,1.4,17.9,2.5c5.9,1,11.8,2.1,17.8,3.3c5.9,1.2,11.8,2.7,17.6,4.1c2.5,0.6,5,1.3,7.4,1.9
			l2.9,0.8c2.4,0.7,4.8,1.3,7.1,2.1c6.4,1.9,12,3.9,17.1,5.8c6.4,2.4,11.7,4.6,16.7,6.9c7.7,3.5,14.9,8.3,21.7,12.9
			c2.9,1.9,5.7,3.7,8.5,5.6l1.4,0.8L165.8,261.9z M215.6,366.3c-3.1-1.7-7.7-4.2-13.4-6.6c-5.6-2.4-11.7-4.7-19.3-7l-12-3.3
			c-2.5-0.6-5.2-1.3-7.8-1.8c-2.7-0.6-5.3-1.1-7.8-1.6l-4.3-0.7c-2.7-0.5-5.2-1-7.8-1.3c-6.6-1.1-13.5-1.9-20.2-2.5
			c-6.8-0.7-13.5-1.2-20.3-1.7c-6.8-0.4-13.5-0.7-20.3-0.8c-8-0.1-14.4-0.1-20.3,0.1c5.9-0.1,12.4,0.1,20.3,0.4
			c6.8,0.2,13.6,0.7,20.3,1.3c6.8,0.6,13.5,1.2,20.2,2.1s13.4,1.8,20,3c2.7,0.5,5.2,1,7.8,1.4l4.2,0.8c2.7,0.6,5.2,1.1,7.7,1.8
			c2.5,0.6,5.1,1.3,7.6,1.9l11.8,3.5c7.4,2.4,13.4,4.7,18.8,7.2c5.2,2.4,11.1,5.7,17.4,9.5l0.7,0.4l-2.9-6L215.6,366.3z
			 M277.8,480.6c2.8-5.1,5.9-10.5,9.5-16.2c1.8-3,3.9-5.9,5.9-8.8l4.5-6.3c0.7-1.1,1.6-2.2,2.4-3.3l1.3-1.7
			c5.1-6.8,10.1-13.2,15.1-19.2c5.6-6.6,10.7-12.7,15.9-18.5c10.3-11.5,21.3-23.2,33.7-35.5c5.7-5.7,11.6-11.5,17.5-17.1
			c6.9-6.5,12.6-11.8,17.9-16.5l0.1-0.6c-0.1-0.1-0.4-0.1-0.6,0c-5.4,4.7-11.2,9.9-18.2,16.4c-6,5.6-12.1,11.2-17.8,16.8
			c-12.6,12.2-23.8,23.7-34.3,35c-5.3,5.7-10.6,11.7-16.3,18.4c-5.2,5.9-10.4,12.3-15.6,19l-1.3,1.7c-0.8,1.1-1.6,2.1-2.4,3.1
			l-4.6,6.2c-2.1,2.9-4.2,5.9-6.2,8.9l-1.2,1.7c-3,4.5-5.1,7.6-7.4,12C276.6,477.7,277.2,479.2,277.8,480.6L277.8,480.6z
			 M258.5,456.1c-0.2-0.1-0.7-0.2-1.3-0.4c-3.6-1.1-12-3.7-18.1-5.2c-8.1-1.8-16.3-3.3-24.4-4.2c-8.5-1-16.7-1.6-24.6-1.9
			c-8.3-0.2-16.7-0.2-24.8,0c-8.1,0.2-16.4,0.8-24.6,1.6c-7.7,0.7-15.7,1.6-24.5,2.9c-8.1,1.2-16.3,2.5-24.3,4.1
			c-4,0.8-8.1,1.6-12.1,2.5c-3.7,0.8-7.8,1.8-12,2.9c-0.2,0.1-0.4,0.2-0.2,0.5c0,0.2,0.2,0.4,0.5,0.2c3.4-0.8,7.1-1.7,12-2.7
			c4-0.8,8.1-1.6,12.1-2.3c8-1.4,16.2-2.7,24.4-3.7c8.8-1.1,16.8-1.9,24.5-2.5c8.2-0.6,16.4-1,24.5-1.1c8-0.1,16.3,0,24.5,0.4
			c7.8,0.5,16.1,1.2,24.4,2.3c8,1.1,16.1,2.7,24,4.5c6.5,1.7,15.1,4.7,22,7.4c0.2-0.1,0.4,0,0.6,0L258.5,456.1z M239,392.5
			c0.7-2.5,1.4-4.8,2.4-7.7l1.1-3.3c2.4-6.9,5.2-14,8.3-20.9c3-6.6,6.3-13.5,9.8-20.4c3.4-6.6,7-13.4,10.7-19.9
			c3.6-6.5,7.5-13.2,11.5-19.6c3.7-6.2,7.7-12.7,12-19.2c4.1-6.4,8.3-12.8,12.4-19c4.8-7.2,9.1-13.2,12.9-18.6
			c0.1-0.1,0.1-0.4-0.1-0.5c-0.1-0.1-0.4-0.1-0.5,0.1c-4,5.3-8.2,11.2-13.3,18.4c-4.3,6.2-8.7,12.4-12.8,18.7
			c-4.3,6.5-8.5,12.9-12.3,19.1c-4.1,6.5-8.1,13-11.8,19.4c-3.9,6.5-7.6,13.3-11.1,19.8c-3.6,6.8-7,13.6-10.1,20.4
			c-3.3,7-6.3,14.1-8.8,21l-0.4,0.8c-1.3,3.5-1.3,3.5-1.4,4.2c-0.1,0.5-0.2,1.1-0.6,2.5C237.7,389.5,238.3,390.9,239,392.5
			L239,392.5z M188.2,271.6c0.7-3.6,1.6-7.4,2.7-11.5c1.6-5.8,3.5-11.7,5.8-18c1.9-5.3,4.2-11.1,7-17.6
			c4.8-11.1,10.4-22.7,16.5-34.3c2.9-5.6,6-11.2,9.2-16.8c3.6-6.4,6.8-11.6,9.8-16.4c0.2-0.4,0.1-0.7-0.2-1s-0.7-0.1-1,0.2
			c-3.1,4.8-6.3,9.9-10,16.3c-3.3,5.6-6.4,11.1-9.5,16.7c-6.4,11.6-12.2,23.1-17.1,34.2c-2.9,6.5-5.3,12.3-7.4,17.8
			c-2.4,6.4-4.5,12.3-6.2,18.2c-0.7,2.4-1.1,3.4-1.3,4.2c-0.2,0.7-0.4,1.2-0.6,2.4C186.6,267.9,187.4,269.7,188.2,271.6L188.2,271.6
			z M130.8,135.4c0.8-2.7,1.8-5.7,2.7-8.2c-1.1,2.5-2.3,5.3-3,7.4C130.5,134.9,130.7,135.1,130.8,135.4L130.8,135.4z M285,507.7
			c103.2,27.2,112.3,9.2,136.8-38.8c3.9-7.7,8.3-16.4,13.5-25.7c33.1-58.7-38.3-162.4-53.3-183.2c-3.7,46.1-58.8,97-83,117.3
			c-2.7,2.2-6,3.1-9.4,2.4c-3.4-0.6-6.3-2.7-7.8-5.7c-2.7-5-1.4-11,3-14.4c42.5-33,63.5-77.3,72.2-100.8c4-10.6,1.7-22.6-5.8-31.2
			c-17-19.3-42-46.7-49.5-54.8c-6.3,29.7-34.7,90.1-47,115.3c-1.1,2.3-3.1,3.9-5.6,4.5c-2.4,0.6-5,0-7-1.6
			c-3.3-2.5-4.1-6.9-2.2-10.5c14.9-26.6,31-81.8,39.5-112.2c3.6-13-0.5-26.8-10.5-36c-20.6-18.4-54.8-46-65.7-54.8
			c1.1,16.9-10.3,65.3-17.8,95c-0.7,3.1-2.9,5.7-5.8,7c-2.9,1.3-6.2,1.3-9.1,0c-4.2-1.9-6.6-6.6-5.9-11.2
			c2.5-15.3,5.6-48.9,7.6-74.4c1.4-18-9.5-34.5-26.7-40.2c-29.1-9.5-67.4-16.8-82-19.3c9.1,7.1,28.3,22.8,35.3,32.5
			c2.1,2.9,12.8,27.2,28.3,62.9c1-2.9,1.9-5.9,2.8-8.1c0.6-1.7,1.3-3.3,2.2-4.8c0.6-1.4,1.4-3,2.5-4.8c0.7-1.2,2.4-1.7,3.6-1
			c0.6,0.4,1.1,1,1.3,1.7c0.2,0.7,0.1,1.4-0.2,2.2c-0.6,1.2-1.3,2.7-2.1,4.3c-0.6,1.6-1.2,3-1.7,4.6c-1,3-3.3,13-4,16.7
			c14.5,33.8,32.5,76.1,50.8,119.7c0.2-0.6,0.5-1.4,0.8-2.8c1.7-5.9,3.7-11.8,6.2-18.2c2.1-5.4,4.5-11.2,7.4-17.8
			c5-11.1,10.7-22.7,17.1-34.3c3-5.6,6.2-11.1,9.4-16.7c3.7-6.4,6.9-11.6,10-16.3c1.2-1.8,3.5-2.3,5.3-1.2s2.4,3.5,1.2,5.4
			c-2.9,4.7-6,9.9-9.5,16.2c-3.1,5.4-6.2,11-9.1,16.5c-6,11.5-11.5,22.9-16.3,33.9c-2.8,6.4-5,12.1-6.9,17.4
			c-2.3,6.3-4.1,12.1-5.7,17.8c-1.6,5.8-2.7,11-3.5,15.9c15.6,37,31.3,74.3,45.3,107.7c0.2-0.6,0.5-1.4,1.1-2.9l0.4-0.8
			c2.7-7,5.7-14.2,9.1-21.4c3.3-6.8,6.8-13.8,10.4-20.6c3.6-6.6,7.5-13.4,11.4-20c3.9-6.4,7.8-13,12.1-19.6
			c3.9-6.2,8.1-12.7,12.6-19.2c4.2-6.3,8.6-12.7,13-19c5.2-7.2,9.4-13.2,13.5-18.6c1.2-1.6,3.4-1.8,5-0.7c1.6,1.1,1.9,3.4,0.7,5
			c-4,5.4-8.1,11.4-13,18.6c-4.2,6.2-8.5,12.6-12.6,19c-4.2,6.6-8.3,13-12.1,19.3c-4,6.5-7.8,13-11.6,19.6
			c-3.7,6.5-7.4,13.3-10.9,19.9c-3.5,6.8-6.9,13.6-9.9,20.3c-3.1,7-5.9,14-8.3,20.8l-1.2,3.3c-1.6,4.3-2.4,7-3.5,11.7
			c12.2,29.1,22.8,54.7,30.8,73.5c1.9-3.4,3.9-6.2,6.4-9.9l1.2-1.7c2.1-3,4.2-6,6.3-8.9l4.6-6.2c0.8-1.1,1.7-2.2,2.5-3.1l1.3-1.7
			c5.2-6.6,10.6-13,15.8-19.1c5.8-6.6,11.2-12.7,16.5-18.4c10.6-11.4,22-22.9,34.7-35.1c5.8-5.6,11.8-11.2,18-16.9
			c7.1-6.5,12.9-11.7,18.5-16.4c1.4-1.3,3.7-1.1,5.1,0.4c0.6,0.7,1,1.6,0.8,2.7c-0.1,1-0.5,1.8-1.2,2.5c-5.4,4.7-11.1,10-18,16.5
			c-5.9,5.6-11.8,11.4-17.6,17c-12.4,12.3-23.5,23.8-33.8,35.3c-5.2,5.8-10.5,11.7-16.1,18.4c-5.1,5.9-10.1,12.3-15.2,19l-1.3,1.7
			c-0.8,1.1-1.6,2.1-2.3,3.1l-4.5,6.3c-2.1,2.9-4,5.7-5.8,8.6c-4.3,6.6-7.8,12.7-10.7,18.4c4.8,11.6,8,19.2,8.8,21.3
			c0.1,0.4,0.1,0.8,0,1.2c0,0-0.2,0.5-0.5,1.1L285,507.7z M186.4,500.9c-1.2,2.4-3.5,4.3-6.2,5L73,535.1
			c5.3,8.8,30.7,47.2,65.6,51.1c10,1.1,20.2,3.3,29.9,5.4c29.7,6.4,57.7,12.4,75-12.4c19.9-28.9,34.8-61.6,38.6-70.5l-20.4-43.2
			c-7.2-2.8-17.9-6.9-25.5-8.8c-7.8-1.9-15.8-3.4-23.7-4.5c-8.2-1.1-16.3-1.9-24-2.3c-8.2-0.4-16.3-0.6-24.3-0.5
			c-8.1,0.1-16.2,0.5-24.3,1.1c-7.6,0.6-15.5,1.3-24.3,2.4c-8.1,1-16.2,2.3-24.2,3.6c-4,0.7-8,1.4-12,2.3c-4.8,1-8.5,1.8-11.8,2.7
			c-1.9,0.5-3.9-0.6-4.3-2.5c-0.2-1-0.1-1.9,0.4-2.8c0.5-0.8,1.3-1.4,2.2-1.7c4.2-1.1,8.3-2.1,12.1-2.9c4-1,8.1-1.7,12.2-2.5
			c8.1-1.6,16.3-2.9,24.4-4.1c8.8-1.2,16.9-2.2,24.6-2.9c8.3-0.7,16.7-1.2,24.8-1.4c8.2-0.2,16.5-0.2,24.9,0.1
			c8.1,0.4,16.4,1,24.9,1.9c8.2,1.1,16.5,2.5,24.8,4.3c5.4,1.3,12.7,3.5,16.8,4.8l-35.4-75l-4.5-2.2c-6.3-3.9-12-7-17.1-9.4
			c-5.3-2.4-11.1-4.7-18.4-7.1l-11.6-3.5c-2.5-0.7-5-1.3-7.5-1.9c-2.5-0.6-5.1-1.2-7.7-1.7l-4.1-0.8c-2.5-0.5-5.1-1-7.7-1.4
			c-6.5-1.2-13.3-2.2-19.8-3c-6.6-0.8-13.3-1.6-20-2.1c-6.6-0.6-13.4-1-20-1.3c-7.8-0.4-14.2-0.5-20.2-0.4c-1.8,0-3.3-1.4-3.3-3.1
			c0-1.8,1.3-3.3,3.1-3.4c6-0.1,12.6-0.2,20.4,0c6.8,0.1,13.6,0.4,20.4,0.8c6.8,0.4,13.6,1,20.4,1.7s13.5,1.6,20.3,2.5
			c2.7,0.4,5.2,0.8,7.8,1.3l4.3,0.8c2.7,0.5,5.3,1,8,1.6c2.7,0.6,5.2,1.2,7.8,1.8l12.1,3.3c7.6,2.3,13.9,4.6,19.6,7
			c4,1.7,7.5,3.5,10.3,5l-41.1-86.6l-5.6-3.4c-2.8-1.8-5.7-3.6-8.6-5.6c-6.8-4.5-13.8-9.2-21.3-12.7c-4.8-2.3-9.9-4.3-16.3-6.8
			c-5.1-1.9-10.5-3.7-16.8-5.7c-2.3-0.7-4.7-1.4-7-2.1l-2.9-0.7c-2.4-0.6-4.8-1.3-7.2-1.9c-5.7-1.4-11.5-2.8-17.4-4
			c-5.8-1.2-11.7-2.3-17.5-3.3c-6.9-1.1-12.4-1.9-17.6-2.5c-1.9-0.2-3.4-2.1-3.3-4c0.2-2.1,1.9-3.5,4-3.3c5.3,0.5,11.1,1.2,18.1,2.2
			c5.9,0.8,12,1.8,17.9,3c5.9,1.1,12,2.4,17.8,3.7c2.7,0.6,5.2,1.2,7.8,1.9l2.4,0.6c2.5,0.6,5,1.3,7.4,2.1
			c6.5,1.8,12.2,3.6,17.4,5.6c6.6,2.3,12.1,4.5,17.1,6.8l1.3,0.6c8.6,3.7,14.4,6.4,21.4,11.2l-40-84.8c-0.2-0.1-0.5-0.2-0.6-0.5
			c-1.9-2.8-6-6.5-9.3-9.5c-1.3-1.2-2.5-2.3-3.4-3.1c-3.5-3.4-7.2-6.3-11.2-8.7c-4-2.5-8.3-4.6-12.8-6.3c-2.3-0.8-4.6-1.6-6.9-2.2
			c-1.2-0.2-2.3-0.6-3.5-0.7c-1.2-0.2-2.3-0.5-3.5-0.5c-1.4-0.1-2.7-1.4-2.5-2.9c0-0.7,0.4-1.4,1-1.9c0.6-0.5,1.3-0.7,2.1-0.7
			c1.4,0,2.7,0.2,4,0.4c1.3,0.1,2.7,0.4,3.9,0.6c2.5,0.5,5.1,1.1,7.6,1.9c5.1,1.6,9.9,3.5,14.5,6c2.5,1.3,6.8,3.9,10.6,6.4
			L58.4,35.3c-6,8.7-28.7,44.6-41.4,72.7c-2.9,6.5-2.9,14-0.1,20.5c2.9,6.5,8.3,11.6,15.1,13.9l54.6,18.4c4.2,1.4,6.6,5.8,5.8,10.1
			c-0.5,2.3-2.1,4.3-4.1,5.7c-2.1,1.2-4.6,1.6-6.9,0.8L3.9,154.7c-0.4,9.7-1.9,51.2-1.2,80.8c0.4,13.5,8.7,25.2,21.3,30.1
			l103.7,39.1c3.7,1.4,6,5.6,5.1,9.4c-0.5,2.3-1.9,4.2-4,5.4c-2.1,1.1-4.5,1.3-6.6,0.6L7.9,280.4c1.6,10,7.1,46.1,10.9,69.7
			c1.9,12,11.2,21,23.2,22.7l123.4,17.3c3.7,0.5,6.6,3.4,7.2,7c0.5,2.7-0.4,5.3-2.2,7.2c-1.8,1.9-4.5,3-7.1,2.7L26.5,394
			c-0.7,5.6-1.8,30.3,22.8,89.5c8,19.1,29,29.5,48.9,24.2l76.9-20.6c4.8-1.3,9.9,1.3,11.7,6C187.7,495.6,187.6,498.5,186.4,500.9
			L186.4,500.9z"/>
	</g>
</g>
</svg>
