<?xml version="1.0" encoding="UTF-8"?>
<svg width="147px" height="321px" viewBox="0 0 147 321" version="1.1" xmlns="http://www.w3.org/2000/svg" xmlns:xlink="http://www.w3.org/1999/xlink">
    <!-- Generator: sketchtool 43.2 (39069) - http://www.bohemiancoding.com/sketch -->
    <title>EB709A78-C419-4EBE-8D33-8B4AF698715A</title>
    <desc>Created with sketchtool.</desc>
    <defs></defs>
    <g id="New" stroke="none" stroke-width="1" fill="none" fill-rule="evenodd">
        <g id="Home---new" transform="translate(-416.000000, -1268.000000)" fill="#F2EDE5">
            <path d="M526.403618,1295.67687 C510.330545,1317.991 492.643313,1339.9289 484.413675,1360.02214 C482.892693,1338.24832 471.200084,1323.62703 466.148341,1318.2927 C466.107596,1271.1351 441.649591,1273.18543 441.649591,1273.18543 C431.735921,1295.29876 456.044505,1312.94446 463.839578,1317.90001 C467.68288,1321.633 482.512361,1337.6784 483.204886,1362.81962 C478.519603,1374.68409 474.812233,1386.14092 471.919761,1397.17726 C470.249428,1403.61178 468.904985,1409.70683 467.77779,1415.65244 C465.862987,1402.59357 459.697642,1393.81051 457.076687,1390.59358 C458.665565,1343.46377 434.153152,1344.66965 434.153152,1344.66965 C423.397467,1366.60645 447.54335,1385.2036 454.95809,1390.23911 C455.704988,1391.04003 465.68631,1401.92704 466.867982,1420.02207 C461.585223,1451.77332 462.984178,1479.14141 466.718596,1500.69768 C468.17168,1509.10056 470.045738,1516.89251 472.123555,1524.12775 C465.292871,1515.23626 456.397825,1506.48066 452.690455,1502.95096 C437.955883,1458.92793 415.588941,1468.38968 415.588941,1468.38968 C412.886496,1494.14114 445.723491,1502.89675 452.148116,1504.3504 C456.493777,1508.50423 466.543031,1518.48169 473.224571,1527.94345 C480.897866,1561.44266 483.820052,1588.65744 483.996659,1588.8868 L497.254552,1589.11822 C497.037269,1588.83315 478.534656,1552.86542 469.177927,1506.13978 C469.585341,1503.95423 474.515094,1480.32056 499.176545,1447.53855 C538.913268,1426.0768 526.173876,1405.91684 526.173876,1405.91684 C498.551813,1407.53222 496.664058,1446.00254 496.55559,1448.75833 C477.217399,1475.0526 470.508742,1495.25218 468.526078,1502.8384 C468.376691,1502.03749 468.200153,1501.26371 468.06436,1500.44924 C463.501416,1474.11431 462.442118,1439.05053 473.170685,1397.82499 C475.452157,1395.20505 490.485536,1378.44033 501.648322,1377.39501 C548.567553,1380.9108 548.404157,1356.43576 548.404157,1356.43576 C526.105354,1344.327 505.830586,1369.94258 501.415395,1376.05117 C491.311907,1377.04214 478.912868,1389.44956 473.956381,1394.85236 C482.431164,1366.75985 485.589753,1353.43617 527.004229,1296.73002 C573.381122,1295.54903 564.033239,1271.30708 564.033239,1271.30708 C537.621425,1260.08312 526.403618,1295.67687 526.403618,1295.67687 Z" id="plants-left" transform="translate(490.118045, 1429.118219) rotate(-1.000000) translate(-490.118045, -1429.118219) "></path>
        </g>
    </g>
</svg>